<svg width="85" height="35" viewBox="0 0 69 29" fill="none" xmlns="http://www.w3.org/2000/svg">
<title>Logo IBM</title>
<g clip-path="url(#logo-ibm)">
<path d="M0.70105 0.113525V2.01115H13.8794V0.113525H0.70105ZM15.7775 0.113525V2.01115H34.5959C33.3486 0.839089 31.7759 0.169338 30.0947 0.113525H15.7775ZM38.2295 0.113525V2.01115H49.6181L48.9674 0.113525H38.2295ZM57.7529 0.113525L57.1021 2.01115H68.3824V0.113525H57.7529ZM0.70105 3.79715V5.69478H13.8794V3.79715H0.70105ZM15.7775 3.79715V5.69478H36.7652C36.7652 5.69478 36.5483 4.24365 36.1144 3.79715H15.7775ZM38.2295 3.79715V5.69478H50.8112L50.2147 3.79715H38.2295ZM56.4514 3.79715L55.8548 5.69478H68.4366V3.85297L56.4514 3.79715ZM4.49728 7.53659V9.43422H10.1916V7.53659H4.49728ZM19.5737 7.53659V9.43422H25.2681V7.53659H19.5737ZM30.8539 7.53659V9.43422H36.5483C36.7652 8.82028 36.8737 8.15053 36.9279 7.53659H30.8539ZM42.0257 7.53659V9.43422H52.167L51.5163 7.53659H42.0257ZM55.204 7.53659L54.5532 9.43422H64.6946V7.53659H55.204ZM4.49728 11.276V13.1737H10.1916V11.276H4.49728ZM19.5737 11.276V13.1737H34.1621C34.8129 12.6713 35.3552 12.0016 35.789 11.276H19.5737ZM42.0257 11.276V13.1737H47.72V12.1132L48.0997 13.1737H58.5664L58.946 12.1132V13.1737H64.6946V11.276H53.9567L53.4144 12.8946L52.8178 11.276H42.0257ZM4.49728 14.9597V16.8573H10.1916V14.9597H4.49728ZM19.5737 14.9597V16.8573H35.789C35.3552 16.1317 34.8129 15.462 34.1621 14.9597H19.5737ZM42.0257 14.9597V16.8573H47.72V14.9597H42.0257ZM48.8047 14.9597L49.5097 16.8573H57.3733L58.0241 14.9597H48.8047ZM59.0002 14.9597V16.8573H64.6946V14.9597H59.0002ZM4.49728 18.6991V20.5967H10.1916V18.6991H4.49728ZM19.5737 18.6991V20.5967H25.2681V18.6991H19.5737ZM30.8539 18.6991V20.5967H36.9279C36.8737 19.927 36.7652 19.313 36.5483 18.6991H30.8539ZM42.0257 18.6991V20.5967H47.72V18.6991H42.0257ZM50.1062 18.6991L50.757 20.5967H56.0175L56.6683 18.6991H50.1062ZM59.0002 18.6991V20.5967H64.6946V18.6991H59.0002ZM0.809513 22.3827V24.2804H13.9878V22.3827H0.809513ZM15.7775 22.3827V24.2804H36.0602C36.494 23.8339 36.711 22.3827 36.711 22.3827H15.7775ZM38.3379 22.3827V24.2804H47.72V22.3827H38.3379ZM51.4078 22.3827L52.1128 24.2804H54.7702L55.4209 22.3827H51.4078ZM59.0002 22.3827V24.2804H68.4908V22.3827H59.0002ZM0.809513 26.1222V28.0198H13.9878V26.1222H0.809513ZM15.7775 26.1222V28.0198H30.0947C31.7759 27.964 33.3486 27.2942 34.5959 26.1222H15.7775ZM38.3379 26.1222V28.0198H47.72V26.1222H38.3379ZM52.7094 26.1222L53.3601 28.0198H53.4686L54.1194 26.1222H52.7094ZM59.0002 26.1222V28.0198H68.4908V26.1222H59.0002Z" fill="#ffffff"/>
</g>
<defs>
<clipPath id="logo-ibm">
<rect width="67.7898" height="27.9063" fill="white" transform="translate(0.70105 0.113525)"/>
</clipPath>
</defs>
</svg>