<svg xmlns="http://www.w3.org/2000/svg" xmlns:xlink="http://www.w3.org/1999/xlink" viewBox="0 0 135.58 32.45" width="135" height="32"><defs><style>.logo-meredith-corporation-1{fill:none;}.logo-meredith-corporation-2{clip-path:url(#clip-path);}.logo-meredith-corporation-3{fill:#ffffff;}</style><clipPath id="clip-path"><rect class="logo-meredith-corporation-1" width="135.58" height="32.45"/></clipPath></defs><title>logo__meredith-corporation</title><g class="logo-meredith-corporation-2"><path class="logo-meredith-corporation-3" d="M131.41,12.6a2.8,2.8,0,0,1,.61.53,3.41,3.41,0,0,1,.74,2.31v7.23h2.82V14.53a5.63,5.63,0,0,0-.29-1.93,4.2,4.2,0,0,0-.94-1.61,4.5,4.5,0,0,0-3.49-1.39,4.24,4.24,0,0,0-3.54,1.75V5h-2.84V22.67h2.84V15.44a3.39,3.39,0,0,1,.74-2.33,2.44,2.44,0,0,1,.61-.51,2.78,2.78,0,0,1,1.37-.34A2.89,2.89,0,0,1,131.41,12.6Z"/><path class="logo-meredith-corporation-3" d="M122,12.39V9.87h-2.8V5h-2.84V18.17a4.45,4.45,0,0,0,1.47,3.74A6.83,6.83,0,0,0,122,23V20.41a3.73,3.73,0,0,1-1.94-.38,2.39,2.39,0,0,1-.86-2.16V12.39Z"/><path class="logo-meredith-corporation-3" d="M110.13,7.88h2.8V5h-2.8Z"/><path class="logo-meredith-corporation-3" d="M104,16.24v.07a4.28,4.28,0,0,1-1.08,3,3.34,3.34,0,0,1-2.52,1.12,3.21,3.21,0,0,1-2.49-1.1,4.36,4.36,0,0,1-1.06-3v-.07a4.18,4.18,0,0,1,1.06-3,2.86,2.86,0,0,1,.78-.66,3.35,3.35,0,0,1,1.71-.44,3.29,3.29,0,0,1,1.7.44,5.1,5.1,0,0,1,.82.68A4.26,4.26,0,0,1,104,16.24ZM103.9,5v6.32A5.19,5.19,0,0,0,99.69,9.6a5.28,5.28,0,0,0-4,1.73,6.69,6.69,0,0,0-.92,1.27A7.34,7.34,0,0,0,94,16.24v.07a6.84,6.84,0,0,0,1.78,4.9,5.25,5.25,0,0,0,4,1.74,5.63,5.63,0,0,0,4.21-1.74v1.46h2.84V5Z"/><path class="logo-meredith-corporation-3" d="M110.13,22.67H113V9.87h-2.82Z"/><path class="logo-meredith-corporation-3" d="M88.23,12.6l.38.38a4.18,4.18,0,0,1,.94,2.39H83.2a4.38,4.38,0,0,1,1.06-2.43l.37-.34A2.75,2.75,0,0,1,86.41,12,2.8,2.8,0,0,1,88.23,12.6Zm3.27,0c-.21-.32-.41-.63-.64-.93A5.31,5.31,0,0,0,86.43,9.6a5.51,5.51,0,0,0-4.34,2,6.59,6.59,0,0,0-.75,1,7.12,7.12,0,0,0-.94,3.68v0a6.64,6.64,0,0,0,1.82,4.81A6.07,6.07,0,0,0,86.73,23a6.2,6.2,0,0,0,5.07-2.41L90.13,19a4.58,4.58,0,0,1-3.33,1.53,3.36,3.36,0,0,1-2.35-.85,3.75,3.75,0,0,1-1.23-2.39h9.09l0-.83A8.33,8.33,0,0,0,91.5,12.6Z"/><path class="logo-meredith-corporation-3" d="M78.82,12.64h.62v-3A4.63,4.63,0,0,0,75,12V9.87H72.22v12.8H75v-6a4.12,4.12,0,0,1,1-2.9A3.57,3.57,0,0,1,78.82,12.64Z"/><path class="logo-meredith-corporation-3" d="M63.88,12a2.88,2.88,0,0,1,1.84.59l.37.38A4.14,4.14,0,0,1,67,15.37H60.7a4.23,4.23,0,0,1,1-2.43l.37-.34A2.78,2.78,0,0,1,63.88,12ZM69,12.6a9.29,9.29,0,0,0-.61-.93A5.34,5.34,0,0,0,63.92,9.6a5.54,5.54,0,0,0-4.35,2,8.19,8.19,0,0,0-.75,1,7.23,7.23,0,0,0-1,3.68v0a6.62,6.62,0,0,0,1.84,4.81A6.06,6.06,0,0,0,64.23,23a6.17,6.17,0,0,0,5-2.41L67.62,19a4.6,4.6,0,0,1-3.35,1.53,3.38,3.38,0,0,1-2.35-.85,3.76,3.76,0,0,1-1.2-2.39h9.07l.06-.83A8,8,0,0,0,69,12.6Z"/><path class="logo-meredith-corporation-3" d="M55.65,14.5a5.73,5.73,0,0,0-.31-1.9,4.9,4.9,0,0,0-1-1.63A4.43,4.43,0,0,0,51,9.6a4.28,4.28,0,0,0-3.91,2.26,4,4,0,0,0-3.8-2.26,4.37,4.37,0,0,0-2.61.84,4.88,4.88,0,0,0-1,1V9.87H36.84v12.8h2.84V15.44a3.49,3.49,0,0,1,.7-2.33A2,2,0,0,1,41,12.6a2.6,2.6,0,0,1,1.31-.34,2.66,2.66,0,0,1,1.31.34,2.2,2.2,0,0,1,.55.51,3.49,3.49,0,0,1,.72,2.33v7.23h2.82V15.44a3.58,3.58,0,0,1,.71-2.35,2.24,2.24,0,0,1,.57-.49,2.58,2.58,0,0,1,1.29-.34,2.68,2.68,0,0,1,1.33.34,4.53,4.53,0,0,1,.57.51,3.64,3.64,0,0,1,.7,2.33v7.23h2.82Z"/><path class="logo-meredith-corporation-3" d="M26.26,8.4a2.35,2.35,0,0,1,2.19,2.43,2.43,2.43,0,0,1-.67,1.59l-1.66,1.69,2,2.11,1.66-1.69a5.2,5.2,0,0,0,1.51-3.83A5.21,5.21,0,0,0,29.82,7a5,5,0,0,0-3.74-1.56,5.06,5.06,0,0,0-1.49-3.85A5,5,0,0,0,21,0a4.85,4.85,0,0,0-3.7,1.57L15.66,3.26l2,2.11,1.63-1.69A2.2,2.2,0,0,1,21,3a2.16,2.16,0,0,1,1.59.7,2.27,2.27,0,0,1,.66,1.69A2.25,2.25,0,0,1,22.54,7L20.91,8.67l2,2.12L24.59,9.1A2.15,2.15,0,0,1,26.26,8.4Z"/><path class="logo-meredith-corporation-3" d="M20.91,8.67,17.7,5.37l-2,2.12,3.2,3.3Z"/><path class="logo-meredith-corporation-3" d="M20.91,19.52l-3.21-3.3-2,2.12,3.2,3.3Z"/><path class="logo-meredith-corporation-3" d="M24.1,16.22l-3.19,3.3,2,2.12,3.17-3.3Z"/><path class="logo-meredith-corporation-3" d="M20.91,12.9l3.19,3.32,2-2.11L23,10.79Z"/><path class="logo-meredith-corporation-3" d="M17.7,16.22l3.21-3.32-2.05-2.11-3.2,3.32Z"/><path class="logo-meredith-corporation-3" d="M20.91,12.9l2-2.11-2-2.12-2,2.12Z"/><path class="logo-meredith-corporation-3" d="M26.12,18.34,27.78,20a2.31,2.31,0,0,1,.67,1.59,2.28,2.28,0,0,1-.67,1.71,2.32,2.32,0,0,1-1.52.7,2.09,2.09,0,0,1-1.67-.7L23,21.64l-2,2.11,1.63,1.7a2.27,2.27,0,0,1,.66,1.63,2.34,2.34,0,0,1-.66,1.69,2.21,2.21,0,0,1-1.59.67,2.24,2.24,0,0,1-1.62-.67L17.7,27.05l-2,2.14,1.63,1.67A4.78,4.78,0,0,0,21,32.43a4.88,4.88,0,0,0,3.6-1.57A5,5,0,0,0,26.08,27a5,5,0,0,0,3.74-1.56,5.45,5.45,0,0,0,0-7.53l-1.66-1.7Z"/><path class="logo-meredith-corporation-3" d="M26.12,18.34l2-2.11-2-2.12-2,2.12Z"/><path class="logo-meredith-corporation-3" d="M13.63,5.37l-3.21,3.3,2.05,2.12,3.19-3.3Z"/><path class="logo-meredith-corporation-3" d="M12,3.68l1.63,1.69,2-2.11L14,1.57a5,5,0,0,0-7.29,0A5.2,5.2,0,0,0,5.23,5.42,4.78,4.78,0,0,0,1.49,7,5.36,5.36,0,0,0,0,10.7a5.31,5.31,0,0,0,1.49,3.83l1.66,1.69,2-2.11L3.56,12.42a2.36,2.36,0,0,1-.68-1.67A2.25,2.25,0,0,1,3.56,9.1a2.09,2.09,0,0,1,1.63-.68,2.12,2.12,0,0,1,1.56.68l1.63,1.69,2-2.12L8.79,7a2.33,2.33,0,0,1-.68-1.73,2.41,2.41,0,0,1,.68-1.57,2.19,2.19,0,0,1,3.21,0Z"/><path class="logo-meredith-corporation-3" d="M13.63,5.37l2,2.12,2-2.12-2-2.11Z"/><path class="logo-meredith-corporation-3" d="M3.15,16.23,1.49,17.92A5.24,5.24,0,0,0,0,21.72a5.38,5.38,0,0,0,1.49,3.73A4.72,4.72,0,0,0,5.23,27a5.22,5.22,0,0,0,1.52,3.85,5,5,0,0,0,7.29,0l1.62-1.67-2-2.13L12,28.77a2.3,2.3,0,0,1-1.54.68,2.21,2.21,0,0,1-1.67-.68,2.53,2.53,0,0,1-.68-1.57,2.38,2.38,0,0,1,.68-1.75l1.63-1.69-2-2.12L6.75,23.33a2.21,2.21,0,0,1-1.56.7,2.11,2.11,0,0,1-1.63-.7,2.22,2.22,0,0,1-.68-1.65A2.31,2.31,0,0,1,3.56,20l1.63-1.69Z"/><path class="logo-meredith-corporation-3" d="M5.19,18.34l2.05-2.11-2-2.12-2,2.12Z"/><path class="logo-meredith-corporation-3" d="M7.24,16.22l-2,2.12,3.19,3.3,1.8-1.84.24-.28Z"/><path class="logo-meredith-corporation-3" d="M5.19,14.11l2.05,2.11,3.18-3.32-2-2.11Z"/><path class="logo-meredith-corporation-3" d="M15.66,14.11l-3.19-3.32L10.42,12.9l3.21,3.32Z"/><path class="logo-meredith-corporation-3" d="M8.38,10.79l2,2.11,2.05-2.11L10.42,8.67Z"/><path class="logo-meredith-corporation-3" d="M10.42,19.53l-.24.27-1.8,1.84,2,2.12,2.05-2.12Z"/><path class="logo-meredith-corporation-3" d="M13.63,16.23l2,2.11,2-2.11-2-2.12Z"/><path class="logo-meredith-corporation-3" d="M15.66,18.34l-2-2.12-3.21,3.3,2.05,2.12Z"/><path class="logo-meredith-corporation-3" d="M15.66,24.94l-3.19-3.3-2.05,2.12,3.21,3.29Z"/><path class="logo-meredith-corporation-3" d="M13.63,27.05l2,2.14,2-2.14-2-2.11Z"/><path class="logo-meredith-corporation-3" d="M20.91,23.76l2-2.12-2-2.11-2,2.11Z"/><path class="logo-meredith-corporation-3" d="M17.7,27.06l3.21-3.3-2.05-2.12-3.2,3.3Z"/></g></svg>